<svg xmlns="http://www.w3.org/2000/svg" viewBox="0 0 64 64" fill="#535353">
  <!-- tail -->
  <rect x="2" y="38" width="4" height="2"/>
  <rect x="5" y="36" width="5" height="3"/>
  <rect x="9" y="34" width="6" height="4"/>
  <rect x="14" y="32" width="7" height="5"/>
  <rect x="19" y="30" width="8" height="7"/>
  <rect x="25" y="28" width="9" height="9"/>
  
  <!-- body -->
  <rect x="32" y="26" width="12" height="14"/>
  <rect x="36" y="24" width="11" height="16"/>
  <rect x="41" y="22" width="8" height="18"/>
  
  <!-- neck -->
  <rect x="45" y="20" width="7" height="8"/>
  <rect x="47" y="15" width="6" height="9"/>
  <rect x="49" y="9" width="5" height="10"/>
  <rect x="50" y="4" width="4" height="9"/>
  
  <!-- head -->
  <rect x="49" y="2" width="8" height="7"/>
  <rect x="48" y="3" width="3" height="5"/>
  <rect x="56" y="3" width="3" height="5"/>
  <rect x="51" y="1" width="6" height="3"/>
  
  <!-- beak -->
  <rect x="57" y="4" width="4" height="4"/>
  <rect x="59" y="5" width="3" height="3"/>
  <rect x="56" y="7" width="5" height="2"/>
  
  <!-- eye -->
  <rect x="54" y="3" width="2" height="2" fill="#ffffff"/>
  
  <!-- legs -->
  <rect x="45" y="40" width="3" height="8"/>
  <rect x="40" y="40" width="3" height="8"/>
  <rect x="28" y="40" width="3" height="8"/>
  <rect x="33" y="40" width="3" height="8"/>
</svg>
